<svg width="353" height="396" viewBox="0 0 353 396" fill="none" xmlns="http://www.w3.org/2000/svg">
<path d="M33.0521 78.2361C17.7271 119.048 30.9531 174.135 54.6291 217.232C115.586 329.131 264.064 265.858 261.504 215.044C264.989 166.557 221.391 152.16 206.598 124.976C123.777 -28.4329 45.3801 43.8311 33.0521 78.2361Z" fill="#8E24AA"/>
<path opacity="0.9" d="M33.0521 78.2361C17.7271 119.048 30.9531 174.135 54.6291 217.232C115.586 329.131 264.064 265.858 261.504 215.044C264.989 166.557 221.391 152.16 206.598 124.976C123.777 -28.4329 45.3801 43.8311 33.0521 78.2361Z" fill="#E1BEE7"/>
<path d="M76.037 220.005H15.182V192.53L76.037 120.193H105.152V194.088H120.242V220.005H105.152V242.477H76.037V220.005ZM76.037 194.088V156.25L43.881 194.088H76.037Z" fill="#9C27B0"/>
<path d="M130.659 181.868C130.659 159.014 134.772 143.022 143.002 133.89C151.231 124.759 163.764 120.193 180.606 120.193C188.697 120.193 195.341 121.192 200.535 123.187C205.729 125.183 209.967 127.78 213.247 130.978C216.527 134.177 219.111 137.539 220.997 141.066C222.884 144.592 224.401 148.707 225.549 153.41C227.79 162.377 228.911 171.727 228.911 181.459C228.911 203.274 225.22 219.241 217.839 229.355C210.457 239.471 197.745 244.527 179.702 244.527C169.586 244.527 161.412 242.913 155.18 239.688C148.946 236.463 143.833 231.733 139.843 225.5C136.943 221.072 134.688 215.016 133.077 207.334C131.464 199.652 130.659 191.164 130.659 181.868ZM163.793 181.95C163.793 197.26 165.146 207.717 167.852 213.322C170.559 218.926 174.482 221.728 179.621 221.728C183.011 221.728 185.95 220.539 188.438 218.16C190.926 215.782 192.757 212.024 193.934 206.884C195.109 201.745 195.697 193.734 195.697 182.853C195.697 166.889 194.344 156.158 191.638 150.663C188.931 145.167 184.872 142.42 179.458 142.42C173.935 142.42 169.944 145.223 167.483 150.827C165.023 156.431 163.793 166.806 163.793 181.95Z" fill="#9C27B0"/>
<path d="M300.101 220.005H239.246V192.53L300.101 120.193H329.216V194.088H344.306V220.005H329.216V242.477H300.101V220.005ZM300.101 194.088V156.25L267.946 194.088H300.101Z" fill="#9C27B0"/>
<g opacity="0.3">
<path d="M129.309 77.9783C129.309 79.0083 128.474 79.8433 127.444 79.8433C126.414 79.8433 125.579 79.0083 125.579 77.9783C125.579 76.9483 126.414 76.1133 127.444 76.1133C128.474 76.1133 129.309 76.9483 129.309 77.9783Z" fill="#8E24AA"/>
<path d="M1.32301 149.812C2.05368 149.812 2.646 149.22 2.646 148.489C2.646 147.758 2.05368 147.166 1.32301 147.166C0.592333 147.166 0 147.758 0 148.489C0 149.22 0.592333 149.812 1.32301 149.812Z" fill="#9C27B0"/>
<path d="M219.411 342.586C220.457 342.586 221.304 341.738 221.304 340.693C221.304 339.647 220.457 338.8 219.411 338.8C218.366 338.8 217.518 339.647 217.518 340.693C217.518 341.738 218.366 342.586 219.411 342.586Z" fill="#9C27B0"/>
<path d="M264.855 265.683C265.586 265.683 266.178 265.091 266.178 264.36C266.178 263.629 265.586 263.037 264.855 263.037C264.124 263.037 263.532 263.629 263.532 264.36C263.532 265.091 264.124 265.683 264.855 265.683Z" fill="#9C27B0"/>
<path d="M352.53 27.9793C352.53 28.7103 351.938 29.3023 351.207 29.3023C350.476 29.3023 349.884 28.7103 349.884 27.9793C349.884 27.2483 350.476 26.6562 351.207 26.6562C351.938 26.6562 352.53 27.2483 352.53 27.9793Z" fill="#9C27B0"/>
<path d="M101.111 1.323C101.111 2.054 100.519 2.646 99.788 2.646C99.057 2.646 98.465 2.054 98.465 1.323C98.465 0.591998 99.057 0 99.788 0C100.519 0 101.111 0.591998 101.111 1.323Z" fill="#9C27B0"/>
<path d="M206.052 70.6265C206.783 70.6265 207.375 70.0341 207.375 69.3035C207.375 68.5728 206.783 67.9805 206.052 67.9805C205.321 67.9805 204.729 68.5728 204.729 69.3035C204.729 70.0341 205.321 70.6265 206.052 70.6265Z" fill="#9C27B0"/>
</g>
<path d="M69.5901 70.6305C81.6906 70.6305 91.5001 60.8211 91.5001 48.7206C91.5001 36.62 81.6906 26.8105 69.5901 26.8105C57.4895 26.8105 47.6801 36.62 47.6801 48.7206C47.6801 60.8211 57.4895 70.6305 69.5901 70.6305Z" fill="#8E24AA"/>
<path opacity="0.7" d="M69.5901 70.6305C81.6906 70.6305 91.5001 60.8211 91.5001 48.7206C91.5001 36.62 81.6906 26.8105 69.5901 26.8105C57.4895 26.8105 47.6801 36.62 47.6801 48.7206C47.6801 60.8211 57.4895 70.6305 69.5901 70.6305Z" fill="#E1BEE7"/>
<path opacity="0.2" d="M62.039 32.1895C58.968 32.1895 56.053 32.8244 53.398 33.9594C49.848 37.8524 47.682 43.0375 47.682 48.7215C47.682 60.8185 57.489 70.6255 69.586 70.6255C72.667 70.6255 75.603 69.9904 78.269 68.8454C78.269 68.8454 78.269 68.8454 78.269 68.8354C81.798 64.9414 83.953 59.7775 83.953 54.1045C83.954 41.9965 74.147 32.1895 62.039 32.1895Z" fill="#8E24AA"/>
<path opacity="0.2" d="M59.8611 37.9825C59.8611 39.0885 58.9641 39.9855 57.8581 39.9855C56.7521 39.9855 55.8551 39.0885 55.8551 37.9825C55.8551 36.8765 56.7521 35.9795 57.8581 35.9795C58.9641 35.9795 59.8611 36.8765 59.8611 37.9825Z" fill="#8E24AA"/>
<path opacity="0.2" d="M83.421 35.9796C83.421 37.0856 82.524 37.9826 81.418 37.9826C80.312 37.9826 79.415 37.0856 79.415 35.9796C79.415 34.8736 80.312 33.9766 81.418 33.9766C82.524 33.9776 83.421 34.8736 83.421 35.9796Z" fill="#8E24AA"/>
<path opacity="0.2" d="M79.415 50.2604C79.415 52.0704 77.948 53.5384 76.137 53.5384C74.327 53.5384 72.859 52.0704 72.859 50.2604C72.859 48.4504 74.326 46.9824 76.137 46.9824C77.947 46.9824 79.415 48.4504 79.415 50.2604Z" fill="#8E24AA"/>
<path opacity="0.2" d="M68.9991 59.6056C68.9991 62.0256 67.0371 63.9866 64.6181 63.9866C62.1981 63.9866 60.2371 62.0246 60.2371 59.6056C60.2371 57.1856 62.1991 55.2246 64.6181 55.2246C67.0371 55.2246 68.9991 57.1866 68.9991 59.6056Z" fill="#8E24AA"/>
<path d="M329.264 313.064C331.704 302.73 325.305 292.375 314.971 289.935C304.638 287.495 294.283 293.894 291.843 304.228C289.403 314.561 295.802 324.917 306.135 327.357C316.469 329.797 326.824 323.398 329.264 313.064Z" fill="#9C27B0"/>
<path opacity="0.3" d="M329.264 313.064C331.704 302.73 325.305 292.375 314.971 289.935C304.638 287.495 294.283 293.894 291.843 304.228C289.403 314.561 295.802 324.917 306.135 327.357C316.469 329.797 326.824 323.398 329.264 313.064Z" fill="#F3E5F5"/>
<path opacity="0.4" d="M322.69 293.699C320.941 293.168 319.078 292.887 317.152 292.887C306.533 292.887 297.923 301.497 297.923 312.115C297.923 318.133 300.682 323.494 305.013 327.023C306.762 327.554 308.625 327.835 310.552 327.835C321.171 327.835 329.78 319.225 329.78 308.607C329.78 302.59 327.021 297.218 322.69 293.699Z" fill="#9C27B0"/>
<path d="M292.187 314.308C271.653 323.97 286.971 331.417 315.899 321.021C342.683 311.395 352.866 299.252 328.951 303.015C330.185 308.123 296.639 321.194 292.187 314.308Z" fill="#9C27B0"/>
<path opacity="0.2" d="M322.454 120.19C295.564 138.36 260.754 162.32 251.144 220H249.094C258.444 163.02 291.984 138.43 318.884 120.19H322.454Z" fill="black"/>
<path d="M183.376 300.627C166.406 300.628 149.567 292.965 141.39 280.441C136.337 272.702 130.47 256.491 147.945 234.863L149.501 236.121C137.139 251.42 134.853 266.771 143.065 279.348C153.059 294.657 176.661 302.354 196.795 296.876C217.423 291.263 229.947 273.319 231.156 247.648C235.291 159.841 281.94 132.793 316.002 113.043C337.164 100.773 352.454 91.9074 349.093 73.2054C348.627 70.6104 347.592 68.8174 345.93 67.7244C341.577 64.8564 333.077 66.8384 323.236 69.1324C303.93 73.6294 277.49 79.7894 261.739 52.9984L263.463 51.9844C278.469 77.5074 303.04 71.7844 322.782 67.1834C333.072 64.7874 341.959 62.7164 347.03 66.0524C349.175 67.4644 350.494 69.6884 351.062 72.8514C354.671 92.9334 338.049 102.571 317.005 114.773C283.341 134.292 237.237 161.024 233.153 247.741C231.901 274.337 218.84 292.949 197.319 298.805C192.784 300.039 188.073 300.626 183.376 300.627Z" fill="#9C27B0"/>
<path opacity="0.2" d="M183.376 300.627C166.406 300.628 149.567 292.965 141.39 280.441C136.337 272.702 130.47 256.491 147.945 234.863L149.501 236.121C137.139 251.42 134.853 266.771 143.065 279.348C153.059 294.657 176.661 302.354 196.795 296.876C217.423 291.263 229.947 273.319 231.156 247.648C235.291 159.841 281.94 132.793 316.002 113.043C337.164 100.773 352.454 91.9074 349.093 73.2054C348.627 70.6104 347.592 68.8174 345.93 67.7244C341.577 64.8564 333.077 66.8384 323.236 69.1324C303.93 73.6294 277.49 79.7894 261.739 52.9984L263.463 51.9844C278.469 77.5074 303.04 71.7844 322.782 67.1834C333.072 64.7874 341.959 62.7164 347.03 66.0524C349.175 67.4644 350.494 69.6884 351.062 72.8514C354.671 92.9334 338.049 102.571 317.005 114.773C283.341 134.292 237.237 161.024 233.153 247.741C231.901 274.337 218.84 292.949 197.319 298.805C192.784 300.039 188.073 300.626 183.376 300.627Z" fill="#F3E5F5"/>
<path d="M241.115 29.3087C247.97 29.1837 254.697 31.4427 254.697 31.4427C254.697 31.4427 265.662 50.2137 266.999 54.5097C266.538 58.7497 259.384 65.7007 259.384 65.7007L241.115 29.3087Z" fill="#9C27B0"/>
<path opacity="0.3" d="M241.115 29.3087C247.97 29.1837 254.697 31.4427 254.697 31.4427C254.697 31.4427 265.662 50.2137 266.999 54.5097C266.538 58.7497 259.384 65.7007 259.384 65.7007L241.115 29.3087Z" fill="#F3E5F5"/>
<path d="M273.696 120.493C269.56 115.245 265.499 109.9 262.137 104.109C261.297 102.662 260.501 101.187 259.748 99.6935C259.32 98.8445 258.906 97.9885 258.504 97.1265C258.153 96.3735 257.378 95.2645 257.3 94.4425C256.099 81.7705 260.437 72.4425 256.272 62.2705L239.801 68.7075C239.801 68.7075 241.202 86.8295 244.399 97.6705C246.383 104.397 250.874 110.219 255.202 115.607C256.556 117.293 257.861 119.018 259.212 120.706C260.491 122.304 261.924 123.769 263.206 125.359C265.153 127.772 265.801 130.076 264.321 132.921C264.242 133.073 264.159 133.224 264.074 133.374C263.654 134.115 265.62 134.955 266.855 133.395C268.897 130.814 268.576 130.972 270.317 128.771C271.374 127.435 272.588 125.993 273.636 124.739C274.66 123.516 274.683 121.745 273.696 120.493Z" fill="#9C27B0"/>
<path opacity="0.7" d="M273.696 120.493C269.56 115.245 265.499 109.9 262.137 104.109C261.297 102.662 260.501 101.187 259.748 99.6935C259.32 98.8445 258.906 97.9885 258.504 97.1265C258.153 96.3735 257.378 95.2645 257.3 94.4425C256.099 81.7705 260.437 72.4425 256.272 62.2705L239.801 68.7075C239.801 68.7075 241.202 86.8295 244.399 97.6705C246.383 104.397 250.874 110.219 255.202 115.607C256.556 117.293 257.861 119.018 259.212 120.706C260.491 122.304 261.924 123.769 263.206 125.359C265.153 127.772 265.801 130.076 264.321 132.921C264.242 133.073 264.159 133.224 264.074 133.374C263.654 134.115 265.62 134.955 266.855 133.395C268.897 130.814 268.576 130.972 270.317 128.771C271.374 127.435 272.588 125.993 273.636 124.739C274.66 123.516 274.683 121.745 273.696 120.493Z" fill="#F3E5F5"/>
<path opacity="0.3" d="M269.669 115.278C267.464 117.943 262.981 121.4 261.005 122.801C261.435 123.28 261.861 123.769 262.288 124.258C266.356 121.601 269.572 118.154 270.792 116.754C270.415 116.269 270.042 115.773 269.669 115.278Z" fill="#9C27B0"/>
<path opacity="0.3" d="M273.692 120.496C273.654 120.444 273.614 120.402 273.576 120.351C272.882 121.074 272.393 122.227 272.311 123.521C272.245 124.415 272.395 125.233 272.688 125.872C273.021 125.486 273.332 125.104 273.637 124.741C274.665 123.517 274.679 121.748 273.692 120.496Z" fill="#9C27B0"/>
<path d="M237.199 41.3114C235.476 43.8174 233.445 46.2874 230.824 48.5054C229.523 49.6204 228.038 50.6294 226.407 51.4854C225.584 51.9054 224.719 52.2694 223.824 52.5704L223.149 52.7874L222.931 52.8554C222.773 52.9034 222.614 52.9464 222.454 52.9844C222.152 53.0524 221.849 53.0984 221.581 53.1204C220.498 53.2024 219.713 53.0484 219.066 52.8874C217.789 52.5394 216.936 52.0744 216.129 51.6234C215.334 51.1644 214.636 50.6944 213.975 50.2094C212.673 49.2184 211.495 48.2234 210.397 47.1614C208.187 45.0514 206.227 42.8634 204.407 40.4264C203.577 39.3154 203.805 37.7424 204.916 36.9134C205.773 36.2724 206.906 36.2624 207.759 36.8014L207.835 36.8504C210.195 38.3484 212.576 39.9284 214.899 41.3424C216.072 42.0344 217.218 42.7304 218.345 43.2724C218.899 43.5524 219.442 43.8074 219.932 43.9884C220.409 44.1744 220.885 44.2804 221.009 44.2554C221.061 44.2524 220.999 44.1814 220.631 44.1944C220.542 44.1994 220.416 44.2114 220.288 44.2394C220.214 44.2534 220.142 44.2724 220.07 44.2954C220.001 44.3184 220.099 44.2764 220.105 44.2704L220.436 44.1014C220.876 43.8774 221.298 43.5974 221.726 43.3124C222.582 42.7334 223.397 41.9984 224.229 41.1924C225.875 39.5574 227.459 37.5224 229.131 35.4064L229.153 35.3774C230.865 33.2094 234.011 32.8404 236.179 34.5524C238.255 36.1914 238.672 39.1604 237.199 41.3114Z" fill="#9C27B0"/>
<path opacity="0.7" d="M237.199 41.3114C235.476 43.8174 233.445 46.2874 230.824 48.5054C229.523 49.6204 228.038 50.6294 226.407 51.4854C225.584 51.9054 224.719 52.2694 223.824 52.5704L223.149 52.7874L222.931 52.8554C222.773 52.9034 222.614 52.9464 222.454 52.9844C222.152 53.0524 221.849 53.0984 221.581 53.1204C220.498 53.2024 219.713 53.0484 219.066 52.8874C217.789 52.5394 216.936 52.0744 216.129 51.6234C215.334 51.1644 214.636 50.6944 213.975 50.2094C212.673 49.2184 211.495 48.2234 210.397 47.1614C208.187 45.0514 206.227 42.8634 204.407 40.4264C203.577 39.3154 203.805 37.7424 204.916 36.9134C205.773 36.2724 206.906 36.2624 207.759 36.8014L207.835 36.8504C210.195 38.3484 212.576 39.9284 214.899 41.3424C216.072 42.0344 217.218 42.7304 218.345 43.2724C218.899 43.5524 219.442 43.8074 219.932 43.9884C220.409 44.1744 220.885 44.2804 221.009 44.2554C221.061 44.2524 220.999 44.1814 220.631 44.1944C220.542 44.1994 220.416 44.2114 220.288 44.2394C220.214 44.2534 220.142 44.2724 220.07 44.2954C220.001 44.3184 220.099 44.2764 220.105 44.2704L220.436 44.1014C220.876 43.8774 221.298 43.5974 221.726 43.3124C222.582 42.7334 223.397 41.9984 224.229 41.1924C225.875 39.5574 227.459 37.5224 229.131 35.4064L229.153 35.3774C230.865 33.2094 234.011 32.8404 236.179 34.5524C238.255 36.1914 238.672 39.1604 237.199 41.3114Z" fill="#F3E5F5"/>
<path d="M200.642 34.7765L201.814 36.7425C201.814 36.7425 202.709 39.3585 204.5 39.8425L209.354 38.2705L209.111 37.8625C209.113 37.8635 209.116 37.8635 209.118 37.8635C208.496 36.9165 208.563 35.0905 208.782 33.5715C209 32.0525 208.212 31.9985 207.63 32.3765C207.294 32.5945 207.056 33.2875 206.783 34.0345C206.544 33.7055 206.288 33.3885 205.999 33.1005L204.516 31.6235C203.876 30.9865 202.851 30.9575 202.176 31.5575L200.974 32.6255C200.362 33.1695 200.223 34.0725 200.642 34.7765Z" fill="#9C27B0"/>
<path opacity="0.7" d="M200.642 34.7765L201.814 36.7425C201.814 36.7425 202.709 39.3585 204.5 39.8425L209.354 38.2705L209.111 37.8625C209.113 37.8635 209.116 37.8635 209.118 37.8635C208.496 36.9165 208.563 35.0905 208.782 33.5715C209 32.0525 208.212 31.9985 207.63 32.3765C207.294 32.5945 207.056 33.2875 206.783 34.0345C206.544 33.7055 206.288 33.3885 205.999 33.1005L204.516 31.6235C203.876 30.9865 202.851 30.9575 202.176 31.5575L200.974 32.6255C200.362 33.1695 200.223 34.0725 200.642 34.7765Z" fill="#F3E5F5"/>
<path d="M246.031 27.5839C241.382 28.7119 234.995 31.3649 230.682 34.0519C229.153 35.0039 228.39 36.8119 228.75 38.5769C230.674 48.0169 235.064 60.6619 239.803 68.7059L261.914 59.5589C262.066 55.6589 256.698 43.0389 251.23 30.8419C250.248 28.6479 248.367 27.0179 246.031 27.5839Z" fill="#9C27B0"/>
<path opacity="0.8" d="M246.031 27.5839C241.382 28.7119 234.995 31.3649 230.682 34.0519C229.153 35.0039 228.39 36.8119 228.75 38.5769C230.674 48.0169 235.064 60.6619 239.803 68.7059L261.914 59.5589C262.066 55.6589 256.698 43.0389 251.23 30.8419C250.248 28.6479 248.367 27.0179 246.031 27.5839Z" fill="#F3E5F5"/>
<path opacity="0.3" d="M254.653 38.5745L250.265 37.1035C251.247 39.6705 254.798 42.9245 257.295 44.8355C256.472 42.8295 255.58 40.7325 254.653 38.5745Z" fill="#9C27B0"/>
<path d="M244.574 17.6802C242.749 14.1992 238.8 12.4472 234.058 12.8432C230.06 13.1772 226.514 17.2592 226.935 19.4652C227.355 21.6712 230.72 22.6052 231.329 23.3712L228.556 25.3812C227.176 26.3822 226.906 28.3282 227.96 29.6682C229.127 31.1502 230.663 32.6982 231.558 33.7912C239.222 33.5922 244.89 30.6682 246.932 27.8552C246.198 24.2762 246.389 21.1422 244.574 17.6802Z" fill="#9C27B0"/>
<path opacity="0.8" d="M244.574 17.6802C242.749 14.1992 238.8 12.4472 234.058 12.8432C230.06 13.1772 226.514 17.2592 226.935 19.4652C227.355 21.6712 230.72 22.6052 231.329 23.3712L228.556 25.3812C227.176 26.3822 226.906 28.3282 227.96 29.6682C229.127 31.1502 230.663 32.6982 231.558 33.7912C239.222 33.5922 244.89 30.6682 246.932 27.8552C246.198 24.2762 246.389 21.1422 244.574 17.6802Z" fill="#F3E5F5"/>
<path d="M240.818 19.8359C242.34 23.7319 240.417 28.1239 236.521 29.6459C232.625 31.1679 228.233 29.2449 226.711 25.3489C225.189 21.4539 227.112 17.0609 231.008 15.5389C234.903 14.0169 239.295 15.9409 240.818 19.8359Z" fill="#263238"/>
<path d="M305.745 109.957C305.634 106.668 305.492 106.997 305.396 104.193C305.338 102.49 305.331 100.604 305.32 98.9696C305.309 97.3746 304.182 96.0096 302.619 95.6926C301.294 95.4236 299.965 95.1676 298.642 94.8856C296.916 94.5176 295.21 94.1216 293.515 93.6296C292.201 93.2476 290.898 92.8266 289.61 92.3626C288.23 91.8656 286.869 91.3206 285.521 90.7426C283.945 90.0666 282.388 89.3466 280.843 88.6046C279.118 87.7766 277.406 86.9206 275.7 86.0536C269.119 75.1586 268.977 67.9796 261.914 59.5586L246.754 66.4166C246.754 66.4166 257.893 86.1816 265.479 94.5616C269.846 99.3846 276.697 101.559 282.807 103.137C287.215 104.275 291.685 105.146 296.16 105.968C297.9 106.287 299.791 106.411 301.288 107.45C302.467 108.268 303.077 109.545 303.425 110.902C303.496 111.179 303.556 111.459 303.61 111.741C303.77 112.578 305.813 111.946 305.745 109.957Z" fill="#9C27B0"/>
<path opacity="0.8" d="M305.745 109.957C305.634 106.668 305.492 106.997 305.396 104.193C305.338 102.49 305.331 100.604 305.32 98.9696C305.309 97.3746 304.182 96.0096 302.619 95.6926C301.294 95.4236 299.965 95.1676 298.642 94.8856C296.916 94.5176 295.21 94.1216 293.515 93.6296C292.201 93.2476 290.898 92.8266 289.61 92.3626C288.23 91.8656 286.869 91.3206 285.521 90.7426C283.945 90.0666 282.388 89.3466 280.843 88.6046C279.118 87.7766 277.406 86.9206 275.7 86.0536C269.119 75.1586 268.977 67.9796 261.914 59.5586L246.754 66.4166C246.754 66.4166 257.893 86.1816 265.479 94.5616C269.846 99.3846 276.697 101.559 282.807 103.137C287.215 104.275 291.685 105.146 296.16 105.968C297.9 106.287 299.791 106.411 301.288 107.45C302.467 108.268 303.077 109.545 303.425 110.902C303.496 111.179 303.556 111.459 303.61 111.741C303.77 112.578 305.813 111.946 305.745 109.957Z" fill="#F3E5F5"/>
<path opacity="0.3" d="M298.057 94.7605C297.46 94.6295 296.854 94.4955 296.251 94.3525C296.298 97.8055 294.679 103.77 294.084 105.577C294.715 105.696 295.355 105.818 295.986 105.938C297.741 101.193 298.017 96.1695 298.057 94.7605Z" fill="#9C27B0"/>
<path opacity="0.3" d="M305.318 98.9709C305.307 97.3719 304.184 96.0099 302.624 95.6899C302.31 95.6259 301.986 95.5579 301.67 95.5039C301.736 96.4439 302.32 97.5349 303.298 98.4009C303.939 98.9789 304.664 99.3629 305.33 99.5439C305.32 99.3449 305.319 99.1579 305.318 98.9709Z" fill="#9C27B0"/>
<path d="M239.403 19.9002C239.808 21.4162 238.111 23.0102 236.753 21.6992C235.651 20.6352 233.991 18.8532 232.636 18.0062C231.244 17.1352 233.1 15.6192 235.286 16.2072C237.327 16.7572 238.998 18.3832 239.403 19.9002Z" fill="#F3E5F5"/>
<path d="M239.518 68.2198C238.813 68.4798 240.101 69.6758 240.101 69.6758C240.101 69.6758 254.071 64.8888 262.596 59.9598C262.668 58.9288 261.918 58.3818 261.918 58.3818C261.918 58.3818 251.546 63.7858 239.518 68.2198Z" fill="#9C27B0"/>
<path opacity="0.5" d="M239.518 68.2198C238.813 68.4798 240.101 69.6758 240.101 69.6758C240.101 69.6758 254.071 64.8888 262.596 59.9598C262.668 58.9288 261.918 58.3818 261.918 58.3818C261.918 58.3818 251.546 63.7858 239.518 68.2198Z" fill="#F3E5F5"/>
<path d="M249.817 26.9228C252.575 28.3158 255.171 29.7908 257.764 31.4238C259.055 32.2368 260.34 33.0718 261.606 33.9728C262.882 34.8558 264.141 35.7868 265.404 36.8348L265.878 37.2228L266.469 37.7558C266.889 38.1258 267.197 38.4668 267.506 38.8068C267.83 39.1578 268.097 39.4958 268.36 39.8328C268.633 40.1718 268.892 40.5088 269.125 40.8408C270.114 42.1688 270.92 43.5198 271.711 44.8598C273.248 47.5768 274.579 50.2898 275.677 53.2088C276.167 54.5108 275.509 55.9628 274.206 56.4538C273.228 56.8218 272.164 56.5418 271.488 55.8278L271.439 55.7738C269.43 53.6458 267.503 51.4008 265.564 49.3158C263.667 47.2368 261.652 45.1028 260.027 44.1748C257.757 42.7588 255.229 41.3528 252.717 39.9678L245.154 35.7698L245.135 35.7598C242.72 34.4198 241.849 31.3758 243.189 28.9608C244.498 26.6058 247.434 25.7228 249.817 26.9228Z" fill="#9C27B0"/>
<path opacity="0.8" d="M249.817 26.9228C252.575 28.3158 255.171 29.7908 257.764 31.4238C259.055 32.2368 260.34 33.0718 261.606 33.9728C262.882 34.8558 264.141 35.7868 265.404 36.8348L265.878 37.2228L266.469 37.7558C266.889 38.1258 267.197 38.4668 267.506 38.8068C267.83 39.1578 268.097 39.4958 268.36 39.8328C268.633 40.1718 268.892 40.5088 269.125 40.8408C270.114 42.1688 270.92 43.5198 271.711 44.8598C273.248 47.5768 274.579 50.2898 275.677 53.2088C276.167 54.5108 275.509 55.9628 274.206 56.4538C273.228 56.8218 272.164 56.5418 271.488 55.8278L271.439 55.7738C269.43 53.6458 267.503 51.4008 265.564 49.3158C263.667 47.2368 261.652 45.1028 260.027 44.1748C257.757 42.7588 255.229 41.3528 252.717 39.9678L245.154 35.7698L245.135 35.7598C242.72 34.4198 241.849 31.3758 243.189 28.9608C244.498 26.6058 247.434 25.7228 249.817 26.9228Z" fill="#F3E5F5"/>
<path d="M278.09 58.0982L277.241 55.9732C277.241 55.9732 276.767 53.2492 275.074 52.4902L270.034 53.2822L270.21 53.7232C270.208 53.7222 270.206 53.7212 270.203 53.7212C270.669 54.7532 270.316 56.5472 269.862 58.0122C269.408 59.4782 270.178 59.6552 270.812 59.3732C271.178 59.2102 271.522 58.5632 271.908 57.8682C272.093 58.2312 272.296 58.5842 272.536 58.9132L273.769 60.6042C274.301 61.3332 275.309 61.5232 276.07 61.0362L277.424 60.1692C278.115 59.7282 278.395 58.8592 278.09 58.0982Z" fill="#9C27B0"/>
<path opacity="0.8" d="M278.09 58.0982L277.241 55.9732C277.241 55.9732 276.767 53.2492 275.074 52.4902L270.034 53.2822L270.21 53.7232C270.208 53.7222 270.206 53.7212 270.203 53.7212C270.669 54.7532 270.316 56.5472 269.862 58.0122C269.408 59.4782 270.178 59.6552 270.812 59.3732C271.178 59.2102 271.522 58.5632 271.908 57.8682C272.093 58.2312 272.296 58.5842 272.536 58.9132L273.769 60.6042C274.301 61.3332 275.309 61.5232 276.07 61.0362L277.424 60.1692C278.115 59.7282 278.395 58.8592 278.09 58.0982Z" fill="#F3E5F5"/>
<path opacity="0.3" d="M245.593 38.417L244.374 38.516L236.889 56.6C237.329 56.63 237.733 56.593 238.107 56.501C238.107 56.501 247.867 52.864 250.821 51.531C248.833 47.411 245.593 38.417 245.593 38.417Z" fill="#9C27B0"/>
<path d="M231.925 43.1616C232.342 46.4186 234.784 53.3406 236.89 56.5996C240.545 55.3396 246.65 52.9626 249.604 51.6296C247.615 47.5106 245.521 41.8346 244.375 38.5166C241.226 38.7256 234.363 41.3106 231.925 43.1616Z" fill="#F3E5F5"/>
<path opacity="0.3" d="M239.357 47.0731C238.949 48.4381 237.511 49.2132 236.147 48.8042C234.783 48.3952 234.007 46.9582 234.416 45.5942C234.825 44.2292 236.262 43.4541 237.626 43.8631C238.99 44.2711 239.765 45.7081 239.357 47.0731Z" fill="#9C27B0"/>
<path opacity="0.6" d="M241.27 43.6278C241.136 44.0748 240.665 44.3288 240.218 44.1948C239.771 44.0608 239.517 43.5898 239.65 43.1428C239.784 42.6958 240.255 42.4418 240.702 42.5758C241.15 42.7088 241.404 43.1798 241.27 43.6278Z" fill="#9C27B0"/>
<path opacity="0.6" d="M243.502 42.7587C243.368 43.2057 242.897 43.4597 242.45 43.3257C242.003 43.1917 241.749 42.7207 241.883 42.2737C242.017 41.8267 242.488 41.5727 242.935 41.7067C243.382 41.8407 243.636 42.3117 243.502 42.7587Z" fill="#9C27B0"/>
<path opacity="0.5" d="M246.648 50.5465L237.401 54.2005L236.842 52.3825L246.089 48.7275L246.648 50.5465Z" fill="#9C27B0"/>
<path opacity="0.2" d="M195.614 189.53C195.414 197.07 194.854 202.86 193.934 206.88C192.754 212.02 190.924 215.78 188.434 218.16C185.954 220.54 183.014 221.73 179.624 221.73C174.484 221.73 170.554 218.93 167.854 213.32C167.414 212.41 167.014 211.37 166.644 210.21C160.934 215.12 155.614 220.48 150.724 226.24L145.414 232.5C148.284 235.41 151.544 237.8 155.184 239.69C161.414 242.91 169.584 244.53 179.704 244.53C181.484 244.53 183.204 244.48 184.874 244.38C190.994 235.32 196.064 225.58 199.974 215.36L214.824 176.64L195.614 189.53Z" fill="black"/>
<path d="M61.7451 242.318C67.3421 247.915 79.2471 259.82 79.2471 259.82L128.258 213.653C111.392 207.241 78.5161 225.548 61.7451 242.318Z" fill="#263238"/>
<path d="M122.779 303.352C117.182 297.755 105.277 285.85 105.277 285.85L151.444 236.84C157.856 253.705 139.55 286.581 122.779 303.352Z" fill="#263238"/>
<path d="M189.756 193.059L208.847 156.25L172.038 175.341C160.212 181.475 149.294 189.218 139.594 198.349L76.847 257.419L107.677 288.249L166.747 225.502C175.879 215.803 183.622 204.885 189.756 193.059Z" fill="#9C27B0"/>
<path opacity="0.6" d="M189.756 193.059L208.847 156.25L172.038 175.341C160.212 181.475 149.294 189.218 139.594 198.349L76.847 257.419L107.677 288.249L166.747 225.502C175.879 215.803 183.622 204.885 189.756 193.059Z" fill="#F3E5F5"/>
<path d="M150.555 227.442C157.679 227.442 163.454 221.666 163.454 214.543C163.454 207.419 157.679 201.644 150.555 201.644C143.431 201.644 137.656 207.419 137.656 214.543C137.656 221.666 143.431 227.442 150.555 227.442Z" fill="#F3E5F5"/>
<path d="M150.554 222.828C155.13 222.828 158.839 219.118 158.839 214.543C158.839 209.967 155.13 206.258 150.554 206.258C145.978 206.258 142.269 209.967 142.269 214.543C142.269 219.118 145.978 222.828 150.554 222.828Z" fill="#9C27B0"/>
<path opacity="0.3" d="M118.103 277.176L87.921 246.995L112.632 223.731L141.366 252.465L118.103 277.176Z" fill="#9C27B0"/>
<path d="M68.5771 269.976C45.9721 271.815 38.4841 286.282 35.9301 305.515C34.6281 315.324 34.0501 325.248 25.8131 330.99C23.5271 332.584 24.6621 336.137 27.4481 336.05C57.7871 335.103 71.9381 320.246 73.7151 314.025C73.1031 317.958 72.2111 321.06 71.2231 323.5C70.2071 326.007 72.9601 328.327 75.2521 326.891C83.7691 321.555 94.4511 311.736 95.1611 295.813C88.8641 286.963 68.5771 269.976 68.5771 269.976Z" fill="#9C27B0"/>
<path opacity="0.2" d="M68.5771 269.976C45.9721 271.815 38.4841 286.282 35.9301 305.515C34.6281 315.324 34.0501 325.248 25.8131 330.99C23.5271 332.584 24.6621 336.137 27.4481 336.05C57.7871 335.103 71.9381 320.246 73.7151 314.025C73.1031 317.958 72.2111 321.06 71.2231 323.5C70.2071 326.007 72.9601 328.327 75.2521 326.891C83.7691 321.555 94.4511 311.736 95.1611 295.813C88.8641 286.963 68.5771 269.976 68.5771 269.976Z" fill="#F3E5F5"/>
<path d="M98.633 302.66L62.437 266.464L81.72 262.293L102.805 283.377L98.633 302.66Z" fill="#9C27B0"/>
<path d="M34.6451 378.052H32.9891V385.36H26.9411V363.004H34.2491C36.8171 363.004 38.7251 363.592 39.9731 364.768C41.2211 365.944 41.8451 367.876 41.8451 370.564C41.8451 373.252 41.2571 375.172 40.0811 376.324C38.9051 377.476 37.0931 378.052 34.6451 378.052ZM35.3291 373.192C35.5451 372.784 35.6531 372.052 35.6531 370.996C35.6531 369.94 35.5331 369.196 35.2931 368.764C35.0531 368.332 34.5731 368.116 33.8531 368.116H32.9891V373.804H33.9971C34.6691 373.804 35.1131 373.6 35.3291 373.192ZM56.1323 372.616L55.9523 380.068C55.9523 380.524 56.0603 380.836 56.2763 381.004C56.5163 381.148 56.9123 381.22 57.4643 381.22L56.9243 385.576C55.5323 385.672 54.7643 385.72 54.6203 385.72C52.8443 385.72 51.7163 385.108 51.2363 383.884H51.0563C50.1683 385.108 48.8003 385.72 46.9523 385.72C45.5363 385.72 44.4443 385.264 43.6763 384.352C42.9323 383.44 42.5603 382.192 42.5603 380.608C42.5603 378.616 43.1723 377.236 44.3963 376.468C45.6443 375.7 47.6003 375.196 50.2643 374.956V374.092C50.2643 373.42 49.9283 373.084 49.2563 373.084C48.1043 373.084 46.3043 373.432 43.8563 374.128L42.9563 368.872C46.0283 368.08 48.5843 367.684 50.6243 367.684C52.6643 367.684 54.0923 368.08 54.9083 368.872C55.7243 369.664 56.1323 370.912 56.1323 372.616ZM49.1843 381.508C50.0723 381.508 50.5163 381.04 50.5163 380.104V378.34C49.6283 378.46 48.9923 378.652 48.6083 378.916C48.2483 379.156 48.0683 379.576 48.0683 380.176C48.0683 381.064 48.4403 381.508 49.1843 381.508ZM55.1243 361.6L51.2363 366.64H47.0963L49.3643 361.6H55.1243ZM64.036 386.944H67.744C68.176 386.944 68.392 386.752 68.392 386.368V386.224C68.392 385.864 68.176 385.684 67.744 385.684H64.036C63.652 385.684 63.46 385.876 63.46 386.26V386.404C63.46 386.764 63.652 386.944 64.036 386.944ZM65.476 367.684H73.972V371.716H71.38V371.896C72.148 372.568 72.532 373.444 72.532 374.524C72.532 378.364 70.36 380.284 66.016 380.284H64.288C63.856 380.284 63.64 380.488 63.64 380.896C63.64 381.28 63.844 381.472 64.252 381.472H69.148C71.908 381.472 73.288 382.672 73.288 385.072C73.288 387.04 72.628 388.456 71.308 389.32C69.988 390.208 68.164 390.652 65.836 390.652C63.508 390.652 61.744 390.4 60.544 389.896C59.368 389.416 58.78 388.504 58.78 387.16C58.78 386.416 59.248 385.792 60.184 385.288V385.144C59.008 384.496 58.42 383.56 58.42 382.336C58.42 380.896 59.344 379.804 61.192 379.06C60.328 378.436 59.68 377.716 59.248 376.9C58.84 376.06 58.636 374.956 58.636 373.588C58.636 371.692 59.248 370.24 60.472 369.232C61.72 368.2 63.388 367.684 65.476 367.684ZM67.06 374.596C67.06 373.828 66.964 373.276 66.772 372.94C66.604 372.58 66.28 372.4 65.8 372.4C65.32 372.4 64.984 372.58 64.792 372.94C64.624 373.276 64.54 373.804 64.54 374.524C64.54 375.988 64.972 376.72 65.836 376.72C66.652 376.72 67.06 376.012 67.06 374.596ZM81.107 385.36H75.167V368.296H81.107V385.36ZM75.635 366.928C75.131 366.496 74.879 365.8 74.879 364.84C74.879 363.88 75.131 363.172 75.635 362.716C76.139 362.26 76.967 362.032 78.119 362.032C79.271 362.032 80.099 362.26 80.603 362.716C81.107 363.172 81.359 363.88 81.359 364.84C81.359 365.776 81.107 366.472 80.603 366.928C80.099 367.36 79.271 367.576 78.119 367.576C76.967 367.576 76.139 367.36 75.635 366.928ZM89.4022 369.376C90.7222 368.248 92.1742 367.684 93.7582 367.684C95.3422 367.684 96.4462 368.056 97.0702 368.8C97.7182 369.52 98.0422 370.612 98.0422 372.076V385.36H91.9222V374.128C91.9222 373.528 91.6582 373.228 91.1302 373.228C90.4582 373.228 89.8942 373.396 89.4382 373.732V385.36H83.3902V368.116H88.8982L89.2582 369.376H89.4022ZM113.191 372.616L113.011 380.068C113.011 380.524 113.119 380.836 113.335 381.004C113.575 381.148 113.971 381.22 114.523 381.22L113.983 385.576C112.591 385.672 111.823 385.72 111.679 385.72C109.903 385.72 108.775 385.108 108.295 383.884H108.115C107.227 385.108 105.859 385.72 104.011 385.72C102.595 385.72 101.503 385.264 100.735 384.352C99.9909 383.44 99.6189 382.192 99.6189 380.608C99.6189 378.616 100.231 377.236 101.455 376.468C102.703 375.7 104.659 375.196 107.323 374.956V374.092C107.323 373.42 106.987 373.084 106.315 373.084C105.163 373.084 103.363 373.432 100.915 374.128L100.015 368.872C103.087 368.08 105.643 367.684 107.683 367.684C109.723 367.684 111.151 368.08 111.967 368.872C112.783 369.664 113.191 370.912 113.191 372.616ZM106.243 381.508C107.131 381.508 107.575 381.04 107.575 380.104V378.34C106.687 378.46 106.051 378.652 105.667 378.916C105.307 379.156 105.127 379.576 105.127 380.176C105.127 381.064 105.499 381.508 106.243 381.508ZM129.445 369.376C130.765 368.248 132.217 367.684 133.801 367.684C135.385 367.684 136.489 368.056 137.113 368.8C137.761 369.52 138.085 370.612 138.085 372.076V385.36H131.965V374.128C131.965 373.528 131.701 373.228 131.173 373.228C130.501 373.228 129.937 373.396 129.481 373.732V385.36H123.433V368.116H128.941L129.301 369.376H129.445ZM153.234 372.616L153.054 380.068C153.054 380.524 153.162 380.836 153.378 381.004C153.618 381.148 154.014 381.22 154.566 381.22L154.026 385.576C152.634 385.672 151.866 385.72 151.722 385.72C149.946 385.72 148.818 385.108 148.338 383.884H148.158C147.27 385.108 145.902 385.72 144.054 385.72C142.638 385.72 141.546 385.264 140.778 384.352C140.034 383.44 139.662 382.192 139.662 380.608C139.662 378.616 140.274 377.236 141.498 376.468C142.746 375.7 144.702 375.196 147.366 374.956V374.092C147.366 373.42 147.03 373.084 146.358 373.084C145.206 373.084 143.406 373.432 140.958 374.128L140.058 368.872C143.13 368.08 145.686 367.684 147.726 367.684C149.766 367.684 151.194 368.08 152.01 368.872C152.826 369.664 153.234 370.912 153.234 372.616ZM146.286 381.508C147.174 381.508 147.618 381.04 147.618 380.104V378.34C146.73 378.46 146.094 378.652 145.71 378.916C145.35 379.156 145.17 379.576 145.17 380.176C145.17 381.064 145.542 381.508 146.286 381.508ZM152.082 361.6V361.888C152.082 363.424 151.866 364.588 151.434 365.38C151.002 366.172 150.138 366.568 148.842 366.568C147.978 366.568 147.018 366.376 145.962 365.992L145.098 365.704V366.964H141.174V366.604C141.174 365.044 141.402 363.88 141.858 363.112C142.314 362.32 143.118 361.924 144.27 361.924C144.654 361.924 145.722 362.152 147.474 362.608L148.194 362.788V361.6H152.082ZM155.63 376.684C155.63 373.516 156.23 371.224 157.43 369.808C158.654 368.392 160.55 367.684 163.118 367.684C165.71 367.684 167.594 368.38 168.77 369.772C169.946 371.164 170.534 373.456 170.534 376.648C170.534 379.816 169.958 382.12 168.806 383.56C167.654 385 165.77 385.72 163.154 385.72C160.538 385.72 158.63 385 157.43 383.56C156.23 382.12 155.63 379.828 155.63 376.684ZM164.27 373.264C164.126 372.784 163.742 372.544 163.118 372.544C162.494 372.544 162.098 372.784 161.93 373.264C161.762 373.744 161.678 374.752 161.678 376.288V377.152C161.678 378.856 161.762 379.96 161.93 380.464C162.098 380.968 162.482 381.22 163.082 381.22C163.706 381.22 164.102 380.968 164.27 380.464C164.438 379.96 164.522 378.928 164.522 377.368V376.324C164.522 374.764 164.438 373.744 164.27 373.264ZM187.164 372.832C186.54 372.832 186.132 373.048 185.94 373.48C185.748 373.888 185.652 374.524 185.652 375.388H188.784V374.524C188.784 373.396 188.244 372.832 187.164 372.832ZM187.308 367.684C189.78 367.684 191.544 368.284 192.6 369.484C193.68 370.66 194.22 372.352 194.22 374.56C194.22 374.848 194.136 376.144 193.968 378.448H185.76C185.76 380.248 186.588 381.148 188.244 381.148C189.036 381.148 190.584 380.872 192.888 380.32L193.392 384.784C191.376 385.408 189.36 385.72 187.344 385.72C184.872 385.72 182.976 384.916 181.656 383.308C180.336 381.676 179.676 379.468 179.676 376.684C179.676 370.684 182.22 367.684 187.308 367.684ZM201.902 369.376C203.222 368.248 204.674 367.684 206.258 367.684C207.842 367.684 208.946 368.056 209.57 368.8C210.218 369.52 210.542 370.612 210.542 372.076V385.36H204.422V374.128C204.422 373.528 204.158 373.228 203.63 373.228C202.958 373.228 202.394 373.396 201.938 373.732V385.36H195.89V368.116H201.398L201.758 369.376H201.902ZM220.219 372.94C219.523 372.94 219.055 373.264 218.815 373.912C218.575 374.536 218.455 375.52 218.455 376.864C218.455 378.208 218.563 379.18 218.779 379.78C219.019 380.38 219.499 380.68 220.219 380.68C220.963 380.68 221.923 380.548 223.099 380.284L223.747 384.892C222.091 385.444 220.615 385.72 219.319 385.72C217.039 385.72 215.311 384.952 214.135 383.416C212.983 381.88 212.407 379.732 212.407 376.972C212.407 374.212 213.007 371.98 214.207 370.276C215.407 368.548 217.147 367.684 219.427 367.684C221.131 367.684 222.667 367.972 224.035 368.548L223.387 373.84C221.995 373.24 220.939 372.94 220.219 372.94ZM224.817 376.684C224.817 373.516 225.417 371.224 226.617 369.808C227.841 368.392 229.737 367.684 232.305 367.684C234.897 367.684 236.781 368.38 237.957 369.772C239.133 371.164 239.721 373.456 239.721 376.648C239.721 379.816 239.145 382.12 237.993 383.56C236.841 385 234.957 385.72 232.341 385.72C229.725 385.72 227.817 385 226.617 383.56C225.417 382.12 224.817 379.828 224.817 376.684ZM233.457 373.264C233.313 372.784 232.929 372.544 232.305 372.544C231.681 372.544 231.285 372.784 231.117 373.264C230.949 373.744 230.865 374.752 230.865 376.288V377.152C230.865 378.856 230.949 379.96 231.117 380.464C231.285 380.968 231.669 381.22 232.269 381.22C232.893 381.22 233.289 380.968 233.457 380.464C233.625 379.96 233.709 378.928 233.709 377.368V376.324C233.709 374.764 233.625 373.744 233.457 373.264ZM247.605 369.376C248.925 368.248 250.377 367.684 251.961 367.684C253.545 367.684 254.649 368.056 255.273 368.8C255.921 369.52 256.245 370.612 256.245 372.076V385.36H250.125V374.128C250.125 373.528 249.861 373.228 249.333 373.228C248.661 373.228 248.097 373.396 247.641 373.732V385.36H241.593V368.116H247.101L247.461 369.376H247.605ZM268.118 385.396C266.342 385.612 264.794 385.72 263.474 385.72C262.178 385.72 261.158 385.384 260.414 384.712C259.694 384.016 259.334 382.828 259.334 381.148V372.796H257.606V368.332H259.622L259.946 365.02H265.382V368.332H268.586L268.334 372.796H265.346V379.96C265.346 380.464 265.586 380.716 266.066 380.716C266.114 380.716 266.858 380.68 268.298 380.608L268.118 385.396ZM275.8 375.676V385.36H269.824V368.116H275.08L275.44 369.16H275.584C276.136 368.536 276.688 368.14 277.24 367.972C277.816 367.78 278.74 367.684 280.012 367.684L279.76 373.444H278.104C277.168 373.444 276.544 373.588 276.232 373.876C275.944 374.164 275.8 374.764 275.8 375.676ZM294.105 372.616L293.925 380.068C293.925 380.524 294.033 380.836 294.249 381.004C294.489 381.148 294.885 381.22 295.437 381.22L294.897 385.576C293.505 385.672 292.737 385.72 292.593 385.72C290.817 385.72 289.689 385.108 289.209 383.884H289.029C288.141 385.108 286.773 385.72 284.925 385.72C283.509 385.72 282.417 385.264 281.649 384.352C280.905 383.44 280.533 382.192 280.533 380.608C280.533 378.616 281.145 377.236 282.369 376.468C283.617 375.7 285.573 375.196 288.237 374.956V374.092C288.237 373.42 287.901 373.084 287.229 373.084C286.077 373.084 284.277 373.432 281.829 374.128L280.929 368.872C284.001 368.08 286.557 367.684 288.597 367.684C290.637 367.684 292.065 368.08 292.881 368.872C293.697 369.664 294.105 370.912 294.105 372.616ZM287.157 381.508C288.045 381.508 288.489 381.04 288.489 380.104V378.34C287.601 378.46 286.965 378.652 286.581 378.916C286.221 379.156 286.041 379.576 286.041 380.176C286.041 381.064 286.413 381.508 287.157 381.508ZM312.053 385.576L309.641 385.72C307.793 385.72 306.665 385.108 306.257 383.884H306.077C305.285 385.108 304.073 385.72 302.441 385.72C300.281 385.72 298.757 384.964 297.869 383.452C297.005 381.94 296.573 379.696 296.573 376.72C296.573 373.72 297.065 371.464 298.049 369.952C299.033 368.44 300.449 367.684 302.297 367.684C303.569 367.684 304.553 367.984 305.249 368.584V362.284H311.261V380.068C311.261 380.524 311.357 380.836 311.549 381.004C311.741 381.148 312.089 381.22 312.593 381.22L312.053 385.576ZM303.881 372.76C303.377 372.76 303.041 373.072 302.873 373.696C302.705 374.296 302.621 375.172 302.621 376.324C302.621 377.452 302.633 378.22 302.657 378.628C302.681 379.036 302.729 379.456 302.801 379.888C302.897 380.296 303.029 380.584 303.197 380.752C303.389 380.896 303.689 380.968 304.097 380.968C304.529 380.968 304.973 380.86 305.429 380.644V373.192C304.925 372.904 304.409 372.76 303.881 372.76ZM326.941 372.616L326.761 380.068C326.761 380.524 326.869 380.836 327.085 381.004C327.325 381.148 327.721 381.22 328.273 381.22L327.733 385.576C326.341 385.672 325.573 385.72 325.429 385.72C323.653 385.72 322.525 385.108 322.045 383.884H321.865C320.977 385.108 319.609 385.72 317.761 385.72C316.345 385.72 315.253 385.264 314.485 384.352C313.741 383.44 313.369 382.192 313.369 380.608C313.369 378.616 313.981 377.236 315.205 376.468C316.453 375.7 318.409 375.196 321.073 374.956V374.092C321.073 373.42 320.737 373.084 320.065 373.084C318.913 373.084 317.113 373.432 314.665 374.128L313.765 368.872C316.837 368.08 319.393 367.684 321.433 367.684C323.473 367.684 324.901 368.08 325.717 368.872C326.533 369.664 326.941 370.912 326.941 372.616ZM319.993 381.508C320.881 381.508 321.325 381.04 321.325 380.104V378.34C320.437 378.46 319.801 378.652 319.417 378.916C319.057 379.156 318.877 379.576 318.877 380.176C318.877 381.064 319.249 381.508 319.993 381.508Z" fill="#9C27B0"/>
</svg>
